<?xml version="1.0" encoding="UTF-8" standalone="no"?>
<!-- Created with Inkscape (http://www.inkscape.org/) -->

<svg
   xmlns:osb="http://www.openswatchbook.org/uri/2009/osb"
   xmlns:dc="http://purl.org/dc/elements/1.1/"
   xmlns:cc="http://creativecommons.org/ns#"
   xmlns:rdf="http://www.w3.org/1999/02/22-rdf-syntax-ns#"
   xmlns:svg="http://www.w3.org/2000/svg"
   xmlns="http://www.w3.org/2000/svg"
   xmlns:sodipodi="http://sodipodi.sourceforge.net/DTD/sodipodi-0.dtd"
   xmlns:inkscape="http://www.inkscape.org/namespaces/inkscape"
   width="69.502731mm"
   height="10.512777mm"
   viewBox="0 0 246.26952 37.249998"
   id="svg3336"
   version="1.1"
   inkscape:version="0.91 r13725"
   sodipodi:docname="konote-logo-text-final.svg">
  <defs
     id="defs3338">
    <linearGradient
       id="linearGradient4149"
       osb:paint="solid">
      <stop
         style="stop-color:#000000;stop-opacity:1;"
         offset="0"
         id="stop4151" />
    </linearGradient>
    <linearGradient
       id="linearGradient4143"
       osb:paint="solid">
      <stop
         style="stop-color:#808285;stop-opacity:1;"
         offset="0"
         id="stop4145" />
    </linearGradient>
  </defs>
  <sodipodi:namedview
     id="base"
     pagecolor="#ffffff"
     bordercolor="#666666"
     borderopacity="1.0"
     inkscape:pageopacity="0.0"
     inkscape:pageshadow="2"
     inkscape:zoom="4"
     inkscape:cx="139.38856"
     inkscape:cy="14.574831"
     inkscape:document-units="px"
     inkscape:current-layer="layer1"
     showgrid="false"
     inkscape:window-width="2560"
     inkscape:window-height="1027"
     inkscape:window-x="-8"
     inkscape:window-y="-8"
     inkscape:window-maximized="1"
     fit-margin-top="0"
     fit-margin-left="0"
     fit-margin-right="0"
     fit-margin-bottom="0"
     borderlayer="false" />
  <metadata
     id="metadata3341">
    <rdf:RDF>
      <cc:Work
         rdf:about="">
        <dc:format>image/svg+xml</dc:format>
        <dc:type
           rdf:resource="http://purl.org/dc/dcmitype/StillImage" />
        <dc:title></dc:title>
      </cc:Work>
    </rdf:RDF>
  </metadata>
  <g
     inkscape:label="Layer 1"
     inkscape:groupmode="layer"
     id="layer1"
     transform="translate(-63.150391,-432.70508)">
    <path
       style="font-style:normal;font-weight:normal;font-size:40px;line-height:125%;font-family:sans-serif;letter-spacing:0px;word-spacing:0px;fill:#000000;fill-opacity:1;stroke:none;stroke-width:1px;stroke-linecap:butt;stroke-linejoin:miter;stroke-opacity:1"
       d="m 77.695312,450.36133 c 0.0015,0.003 0.003,0.002 0.0039,0.004 -3.4e-4,-2.6e-4 -0.0016,2.9e-4 -0.002,0 0,0 -0.002,-0.002 -0.002,-0.002 0,0 0,-0.002 0,-0.002 z"
       id="path4212" />
    <path
       style="font-style:normal;font-weight:normal;font-size:40px;line-height:125%;font-family:sans-serif;letter-spacing:0px;word-spacing:0px;fill:#3176aa;fill-opacity:1;stroke:none;stroke-width:1px;stroke-linecap:butt;stroke-linejoin:miter;stroke-opacity:1"
       d="m 73.736328,447.42773 c -1.257531,0.81816 -2.526959,2.04939 -2.298828,3.69336 -0.015,1.1844 0.778094,2.12789 1.734375,2.7168 l 19.927734,15.66797 9.701171,0 C 83.189837,454.69061 83.206699,454.70258 73.736328,447.42773 Z"
       id="path4208" />
    <path
       id="path4198"
       style="font-style:normal;font-weight:normal;font-size:40px;line-height:125%;font-family:sans-serif;letter-spacing:0px;word-spacing:0px;fill:#808285;fill-opacity:1;stroke:none;stroke-width:1px;stroke-linecap:butt;stroke-linejoin:miter;stroke-opacity:1"
       d="m 209.92578,433.1543 c -2.53333,0 -4.88411,0.43411 -7.05078,1.30078 -2.13333,0.83333 -3.99961,2.03294 -5.59961,3.59961 -1.56667,1.53333 -2.79922,3.39961 -3.69922,5.59961 -0.86666,2.2 -1.30078,4.63411 -1.30078,7.30078 0,2.63333 0.43412,5.08294 1.30078,7.34961 0.9,2.26666 2.13255,4.23372 3.69922,5.90039 1.6,1.63333 3.46628,2.93372 5.59961,3.90039 2.16667,0.93333 4.51745,1.40039 7.05078,1.40039 l 8.84961,0 c 2.6,0 4.98372,-0.46706 7.15039,-1.40039 2.16667,-0.96667 4.03294,-2.26706 5.59961,-3.90039 1.6,-1.66667 2.83451,-3.63373 3.70117,-5.90039 0.9,-2.26667 1.34961,-4.71628 1.34961,-7.34961 0,-2.63334 -0.43411,-5.03255 -1.30078,-7.19922 -0.86667,-2.2 -2.08372,-4.08372 -3.65039,-5.65039 -1.56667,-1.56667 -3.44844,-2.78373 -5.64844,-3.65039 -2.16666,-0.86667 -4.56784,-1.30078 -7.20117,-1.30078 l -8.84961,0 z m 28.8086,0 0,6.35156 13.80078,0 0,30 6.34961,0 0,-30 13.79882,0 0,-6.35156 -33.94921,0 z m 38.18554,0 0,36.35156 32.5,0 0,-6.35156 -26.20117,0 0,-23.64844 26.15039,0 0,-6.35156 -32.44922,0 z m -66.99414,6.35156 8.84961,0 c 1.66667,0 3.19961,0.29844 4.59961,0.89844 1.4,0.56666 2.60156,1.36705 3.60156,2.40039 1.03334,1.03333 1.83177,2.28333 2.39844,3.75 0.56667,1.43333 0.85156,3.00117 0.85156,4.70117 0,1.7 -0.28489,3.28333 -0.85156,4.75 -0.56667,1.46667 -1.3651,2.73216 -2.39844,3.79883 -1,1.03333 -2.20156,1.85117 -3.60156,2.45117 -1.4,0.6 -2.93294,0.89844 -4.59961,0.89844 l -8.84961,0 c -1.63333,0 -3.15078,-0.29844 -4.55078,-0.89844 -1.36667,-0.6 -2.54883,-1.41784 -3.54883,-2.45117 -1,-1.06667 -1.78294,-2.33216 -2.34961,-3.79883 -0.56666,-1.46667 -0.85156,-3.05 -0.85156,-4.75 0,-1.73333 0.2849,-3.31667 0.85156,-4.75 0.56667,-1.43333 1.34961,-2.66784 2.34961,-3.70117 1,-1.03334 2.18216,-1.83373 3.54883,-2.40039 1.4,-0.6 2.91745,-0.89844 4.55078,-0.89844 z m 77.94336,8.84961 0,5.34961 20.15039,0 0,-5.34961 -20.15039,0 z" />
    <path
       id="path4196"
       style="font-style:normal;font-weight:normal;font-size:40px;line-height:125%;font-family:sans-serif;letter-spacing:0px;word-spacing:0px;fill:#3176aa;fill-opacity:1;stroke:none;stroke-width:1px;stroke-linecap:butt;stroke-linejoin:miter;stroke-opacity:1"
       d="m 117.83594,433.1543 c -2.53334,0 -4.88412,0.43411 -7.05078,1.30078 -2.13334,0.83333 -3.99961,2.03294 -5.59961,3.59961 -1.56667,1.53333 -2.79922,3.39961 -3.69922,5.59961 -0.86667,2.2 -1.30078,4.63411 -1.30078,7.30078 0,2.63333 0.43411,5.08294 1.30078,7.34961 0.9,2.26666 2.13255,4.23372 3.69922,5.90039 1.6,1.63333 3.46627,2.93372 5.59961,3.90039 2.16666,0.93333 4.51744,1.40039 7.05078,1.40039 l 8.84961,0 c 2.6,0 4.98372,-0.46706 7.15039,-1.40039 2.16666,-0.96667 4.03294,-2.26706 5.59961,-3.90039 1.6,-1.66667 2.8345,-3.63373 3.70117,-5.90039 0.9,-2.26667 1.34961,-4.71628 1.34961,-7.34961 0,-2.63334 -0.43412,-5.03255 -1.30078,-7.19922 -0.86667,-2.2 -2.08373,-4.08372 -3.65039,-5.65039 -1.56667,-1.56667 -3.44844,-2.78373 -5.64844,-3.65039 -2.16667,-0.86667 -4.56784,-1.30078 -7.20117,-1.30078 l -8.84961,0 z m 0,6.35156 8.84961,0 c 1.66666,0 3.19961,0.29844 4.59961,0.89844 1.4,0.56666 2.60156,1.36705 3.60156,2.40039 1.03333,1.03333 1.83177,2.28333 2.39844,3.75 0.56666,1.43333 0.85156,3.00117 0.85156,4.70117 0,1.7 -0.2849,3.28333 -0.85156,4.75 -0.56667,1.46667 -1.36511,2.73216 -2.39844,3.79883 -1,1.03333 -2.20156,1.85117 -3.60156,2.45117 -1.4,0.6 -2.93295,0.89844 -4.59961,0.89844 l -8.84961,0 c -1.63334,0 -3.15078,-0.29844 -4.55078,-0.89844 -1.36667,-0.6 -2.54883,-1.41784 -3.54883,-2.45117 -1,-1.06667 -1.78294,-2.33216 -2.34961,-3.79883 -0.56667,-1.46667 -0.85156,-3.05 -0.85156,-4.75 0,-1.73333 0.28489,-3.31667 0.85156,-4.75 0.56667,-1.43333 1.34961,-2.66784 2.34961,-3.70117 1,-1.03334 2.18216,-1.83373 3.54883,-2.40039 1.4,-0.6 2.91744,-0.89844 4.55078,-0.89844 z" />
    <path
       style="font-style:normal;font-weight:normal;font-size:40px;line-height:125%;font-family:sans-serif;letter-spacing:0px;word-spacing:0px;fill:#808285;fill-opacity:1;stroke:none;stroke-width:1px;stroke-linecap:butt;stroke-linejoin:miter;stroke-opacity:1"
       d="M 92.300781,433.1543 76.6875,445.1582 c 1.592836,1.09345 3.148972,2.23844 4.673828,3.42578 l 20.689452,-15.42968 -9.749999,0 z"
       id="path4194" />
    <path
       style="font-style:normal;font-weight:normal;font-size:40px;line-height:125%;font-family:sans-serif;letter-spacing:0px;word-spacing:0px;fill:#3176aa;fill-opacity:1;stroke:none;stroke-width:1px;stroke-linecap:butt;stroke-linejoin:miter;stroke-opacity:1"
       d="m 63.150391,433.1543 0,36.35156 6.349609,0 0,-36.35156 -6.349609,0 z"
       id="path4192" />
    <path
       style="font-style:normal;font-weight:normal;font-size:40px;line-height:125%;font-family:sans-serif;letter-spacing:0px;word-spacing:0px;fill:#808285;fill-opacity:1;stroke:none;stroke-width:1px;stroke-linecap:butt;stroke-linejoin:miter;stroke-opacity:1"
       d="m 152.77344,432.70508 c -1,0 -1.80039,0.35078 -2.40039,1.05078 -0.56667,0.66667 -0.84961,1.58333 -0.84961,2.75 l 0,33 6.05078,0 0,-26.60156 25.54883,25.70117 c 0.9,0.9 1.86705,1.34961 2.90039,1.34961 0.93333,0 1.68333,-0.33334 2.25,-1 0.6,-0.66667 0.90039,-1.60078 0.90039,-2.80078 l 0,-33.29883 -6.05078,0 0,26.59961 -25.65039,-25.44922 c -0.46667,-0.46667 -0.91628,-0.8 -1.34961,-1 -0.43334,-0.2 -0.88295,-0.30078 -1.34961,-0.30078 z"
       id="path3590" />
  </g>
</svg>
