<?xml version="1.0" encoding="utf-8"?>
<!-- Generator: Adobe Illustrator 16.0.0, SVG Export Plug-In . SVG Version: 6.00 Build 0)  -->
<!DOCTYPE svg PUBLIC "-//W3C//DTD SVG 1.1//EN" "http://www.w3.org/Graphics/SVG/1.1/DTD/svg11.dtd">
<svg version="1.1" id="Layer_1" xmlns="http://www.w3.org/2000/svg" xmlns:xlink="http://www.w3.org/1999/xlink" x="0px" y="0px"
	 width="618.324px" height="90.329px" viewBox="0 0 618.324 90.329" enable-background="new 0 0 618.324 90.329"
	 xml:space="preserve">
<g>
	<g>
		<g>
			<g>
				<path fill="#3175AA" d="M0,1.09v88.149h15.4V1.09H0z"/>
				<polygon fill="#3175AA" points="94.328,1.09 40.787,41.02 39.639,40.15 29.688,32.611 70.688,1.09 				"/>
				<path fill="#3175AA" d="M96.15,89.239H72.629L23.279,50.44c-2.66-2.061-3.15-4-3.15-6.43c0-2.66,0.73-4.6,3.881-7.031
					l1.57-1.209l11.039,8.369L96.15,89.239z"/>
			</g>
			<path fill="#3175AA" d="M132.643,89.239c-24.613,0-42.799-19.4-42.799-44.983c0-25.947,18.186-43.164,42.799-43.164h21.461
				c25.461,0,43.164,17.58,43.164,43.164c0,25.583-18.066,44.983-43.164,44.983H132.643z M154.104,73.84
				c16.246,0,27.766-12.246,27.766-28.858c0-16.609-11.52-28.492-27.766-28.492h-21.461c-15.762,0-27.402,11.76-27.402,28.492
				c0,16.612,11.52,28.858,27.402,28.858H154.104z"/>
			<g>
				<g>
					<path fill="#808285" d="M224.055,24.734v64.504h-14.672V9.215c0-5.697,3.031-9.215,7.883-9.215c2.303,0,4.242,0.85,6.547,3.152
						l62.199,61.715V0.363h14.67v80.752c0,5.818-3.152,9.213-7.639,9.213c-2.545,0-4.85-1.09-7.031-3.273L224.055,24.734z"/>
				</g>
			</g>
			<g>
				<g>
					<path fill="#808285" d="M355.842,89.239c-24.613,0-42.801-19.4-42.801-44.983c0-25.947,18.188-43.164,42.801-43.164h21.459
						c25.463,0,43.164,17.58,43.164,43.164c0,25.583-18.064,44.983-43.164,44.983H355.842z M377.301,73.84
						c16.248,0,27.766-12.246,27.766-28.858c0-16.609-11.518-28.492-27.766-28.492h-21.459c-15.764,0-27.402,11.76-27.402,28.492
						c0,16.612,11.518,28.858,27.402,28.858H377.301z"/>
				</g>
			</g>
			<g>
				<g>
					<path fill="#808285" d="M432.945,89.239V1.092h51.045c24.857,0,42.922,17.58,42.922,43.164
						c0,25.583-18.064,44.983-42.922,44.983H432.945z M483.99,73.84c15.883,0,27.523-12.246,27.523-28.858
						c0-16.609-11.641-28.492-27.523-28.492h-35.766v57.35H483.99z"/>
				</g>
			</g>
			<g>
				<polygon fill="#808285" points="539.516,89.239 539.516,1.092 618.203,1.092 618.203,16.49 554.793,16.49 554.793,73.84 
					618.324,73.84 618.324,89.239 				"/>
			</g>
			<g>
				<rect x="559.793" y="37.951" fill="#808285" width="55.139" height="12.973"/>
			</g>
		</g>
	</g>
</g>
</svg>
