<svg version="1.1" id="Layer_1" xmlns="http://www.w3.org/2000/svg" xmlns:xlink="http://www.w3.org/1999/xlink" x="0px" y="0px"
	 width="217.311px" height="199.222px" viewBox="0 0 217.311 199.222" enable-background="new 0 0 217.311 199.222"
	 xml:space="preserve">
	<rect fill="#3175AA" width="34.805" height="199.22"/>
	<polygon fill="#808285" points="92.182,90.244 213.185,0.001 159.758,0.001 67.097,71.24 89.584,88.28 			"/>
	<path fill="#3175AA" d="M185.019,32.69v115.651c0,6.084,0,26.32-22.305,9.52L82.771,97.293L57.817,78.376l-3.548,2.732
		c-7.123,5.495-8.77,9.875-8.77,15.893c0,5.484,1.104,9.876,7.113,14.527l111.532,87.693h35.511c4.326,0,7.395-1.441,10.587-3.941
		c0.309-0.242,0.608-0.486,0.897-0.729c3.81-3.184,6.197-6.768,6.17-13.826V8.607L185.019,32.69z"/>
</svg>
